# xmcd
#
# Track frame offsets:
#	150
#	13116
#	23507
#	37658
#	52310
#	65551
#	74026
#	89406
#	100476
#	114784
#	128715
#	142825
#	156939
#
# Disc length: 2270 seconds
#
# Revision: 0
# Processed by: cddbd v1.5.2PL0 Copyright (c) Steve Scherf et al.
# Submitted via: dBpowerAMP V4.0
#
DISCID=ad08dc0d
DTITLE=Christian Gebhardt - Alle schönne Dinge Dieser Welt
DYEAR=1900
DGENRE=Country
TTITLE0=Alle schönne Dinge Dieser Welt
TTITLE1=Lady Sunshine und Mister Moon
TTITLE2=Mien kleiner Blummen
TTITLE3=Der Junge mit Mundharmonika
TTITLE4=Ich wär so gern ein Cowboy
TTITLE5=Mann im Mond
TTITLE6=Butterfly
TTITLE7=Die süßesten Früchte
TTITLE8=Ich bin ein echter Country-Boy
TTITLE9=Man lent  fürs Leben sagt die Oma
TTITLE10=Bohnen in den Ohr´n
TTITLE11=Irgendwo, Irgendwann
TTITLE12=Bayrisch ist nicht einfach (Mit Romy)
EXTD=
EXTT0=
EXTT1=
EXTT2=
EXTT3=
EXTT4=
EXTT5=
EXTT6=
EXTT7=
EXTT8=
EXTT9=
EXTT10=
EXTT11=
EXTT12=
PLAYORDER=
